<?xml version="1.0" encoding="UTF-8" standalone="no"?>
<!-- Created with Inkscape (http://www.inkscape.org/) -->

<svg
   width="512"
   height="512"
   viewBox="0 0 52.916669 52.916662"
   version="1.1"
   id="svg1"
   xmlns="http://www.w3.org/2000/svg"
   xmlns:svg="http://www.w3.org/2000/svg">
  <defs
     id="defs1" />
  <g
     id="layer10"
     style="display:inline"
     transform="translate(-673.15318,63.500003)">
    <rect
       style="font-variation-settings:normal;opacity:1;vector-effect:none;fill:#000000;fill-opacity:1;fill-rule:evenodd;stroke:none;stroke-width:0.264583;stroke-linecap:butt;stroke-linejoin:miter;stroke-miterlimit:4;stroke-dasharray:none;stroke-dashoffset:0;stroke-opacity:1;-inkscape-stroke:none;stop-color:#000000;stop-opacity:1"
       id="rect21"
       width="52.916649"
       height="52.916664"
       x="673.1532"
       y="-63.5"
       ry="0.27587399" />
  </g>
  <g
     id="layer1"
     transform="translate(-673.15318,63.500003)">
    <g
       id="g31"
       transform="matrix(1.385405,0,0,1.385405,-265.87345,16.183682)"
       style="stroke-width:0.721811">
      <path
         style="font-weight:900;font-size:333.333px;line-height:1.25;font-family:'Hanken Grotesk';-inkscape-font-specification:'Hanken Grotesk Heavy';text-align:center;letter-spacing:0px;word-spacing:0px;text-anchor:middle;white-space:pre;fill:#ffffff;stroke-width:0.381957;paint-order:stroke fill markers"
         d="m 704.44137,-25.65171 q -1.85567,0 -3.03946,-0.959829 -1.18379,-0.959824 -1.43974,-2.559537 l 2.44756,-0.607893 q 0.17597,0.959827 0.71987,1.439743 0.5599,0.463914 1.39175,0.463914 0.41593,0 0.73587,-0.127974 0.33594,-0.127978 0.52791,-0.383933 0.19196,-0.255952 0.19196,-0.607891 0,-0.31994 -0.19196,-0.559898 -0.19197,-0.255958 -0.62389,-0.479914 -0.43192,-0.239958 -1.15179,-0.511912 -1.1358,-0.447917 -1.85567,-0.943827 -0.71987,-0.511911 -1.05581,-1.167792 -0.33594,-0.655884 -0.33594,-1.503728 0,-0.927839 0.44792,-1.631711 0.46391,-0.719872 1.27977,-1.119798 0.83185,-0.415927 1.91965,-0.415927 1.16779,0 2.06363,0.543905 0.91184,0.527901 1.45574,1.61571 l -1.99964,1.21578 q -0.30394,-0.559901 -0.71987,-0.847849 -0.39993,-0.303945 -0.87984,-0.303945 -0.28795,0 -0.52791,0.111979 -0.23996,0.111984 -0.38393,0.319944 -0.14397,0.191967 -0.14397,0.463919 0,0.271949 0.15997,0.511907 0.17597,0.239956 0.62389,0.49591 0.44792,0.239956 1.24777,0.543904 1.07181,0.399929 1.75969,0.879843 0.70387,0.479914 1.05581,1.119798 0.35194,0.62389 0.35194,1.503731 0,1.023817 -0.51191,1.823676 -0.49591,0.783858 -1.40775,1.231776 -0.89584,0.447919 -2.11162,0.447919 z"
         id="path20" />
      <path
         style="font-weight:900;font-size:333.333px;line-height:1.25;font-family:'Hanken Grotesk';-inkscape-font-specification:'Hanken Grotesk Heavy';text-align:center;letter-spacing:0px;word-spacing:0px;text-anchor:middle;white-space:pre;fill:#ffffff;stroke-width:0.381957;paint-order:stroke fill markers"
         d="m 687.61367,-25.891667 v -11.150001 h 3.66334 l 2.55955,7.614635 h -0.44793 l 2.55955,-7.614635 h 3.66334 v 11.150001 h -2.51155 v -8.206529 l 0.23996,0.04799 -2.51155,7.150715 h -2.43157 l -2.51155,-7.150715 0.23996,-0.04799 v 8.206529 z"
         id="path19" />
      <g
         id="g29"
         transform="translate(9.014383,-8.5928602)"
         style="stroke-width:0.721811">
        <path
           style="font-weight:900;font-size:333.333px;line-height:1.25;font-family:'Hanken Grotesk';-inkscape-font-specification:'Hanken Grotesk Heavy';text-align:center;letter-spacing:0px;word-spacing:0px;text-anchor:middle;white-space:pre;fill:#ffffff;stroke-width:0.381957;paint-order:stroke fill markers"
           d="m 687.71766,-31.442672 4.63917,-11.150001 h 1.83967 l 4.62317,11.150001 h -2.73551 l -2.7995,-7.406674 -2.83149,7.406674 z m 3.3274,-1.887661 0.78387,-2.239599 h 2.89548 l 0.81585,2.239599 z"
           id="path17" />
        <path
           style="font-weight:900;font-size:333.333px;line-height:1.25;font-family:'Hanken Grotesk';-inkscape-font-specification:'Hanken Grotesk Heavy';text-align:center;letter-spacing:0px;word-spacing:0px;text-anchor:middle;white-space:pre;fill:#ffffff;stroke-width:0.381957;paint-order:stroke fill markers"
           d="m 678.59929,-31.442672 v -11.150001 h 3.91929 q 1.40775,0 2.2556,0.415926 0.84785,0.399927 1.23178,1.151795 0.38393,0.735868 0.38393,1.727687 0,1.63171 -0.92783,2.495556 -0.92784,0.847845 -2.60754,0.927834 -0.44792,0 -0.86384,0 -0.41593,0 -0.65588,0 h -0.22396 v 4.431203 z m 5.93493,0 -2.73551,-4.703158 2.57554,-0.303943 3.07145,5.007101 z m -3.42338,-6.670802 h 1.15179 q 0.39993,0 0.76786,-0.06399 0.36794,-0.07998 0.60789,-0.319941 0.23996,-0.255956 0.23996,-0.767863 0,-0.51191 -0.23996,-0.735866 -0.23995,-0.239958 -0.60789,-0.287949 -0.36793,-0.06399 -0.76786,-0.06399 h -1.15179 z"
           id="text15" />
      </g>
    </g>
  </g>
</svg>
