<?xml version="1.0" encoding="UTF-8" standalone="no"?>
<!-- Created with Inkscape (http://www.inkscape.org/) -->

<svg
   width="512"
   height="512"
   viewBox="0 0 52.916669 52.916662"
   version="1.1"
   id="svg1"
   xmlns="http://www.w3.org/2000/svg"
   xmlns:svg="http://www.w3.org/2000/svg">
  <defs
     id="defs1" />
  <g
     id="layer10"
     style="display:inline"
     transform="translate(-609.18755,63.500003)">
    <rect
       style="font-variation-settings:normal;opacity:1;vector-effect:none;fill:#ffffff;fill-opacity:1;fill-rule:evenodd;stroke:none;stroke-width:0.264583;stroke-linecap:butt;stroke-linejoin:miter;stroke-miterlimit:4;stroke-dasharray:none;stroke-dashoffset:0;stroke-opacity:1;-inkscape-stroke:none;stop-color:#000000;stop-opacity:1"
       id="rect18"
       width="52.916664"
       height="52.916664"
       x="609.18756"
       y="-63.5"
       ry="0.27587399" />
  </g>
  <g
     id="layer1"
     transform="translate(-609.18755,63.500003)">
    <g
       id="g19">
      <path
         d="M 1615.5655,635.04272 V 412.37627 h 85.6666 q 28.9999,0 51.6666,5.66666 23,5.66666 35.9999,20.66665 13.3334,14.99998 13.3334,42.66662 0,12.66666 -4.6667,25.33331 -4.6667,12.33332 -16.3333,22.66665 -11.3333,10.33332 -32.6667,15.99998 l 64.6667,89.66658 h -61 l -60.3333,-83.99992 h -23.6666 v 83.99992 z m 52.6666,-127.99987 h 34.6666 q 18.6667,0 31,-4.66667 12.6667,-4.99999 12.6667,-20.33331 0,-15.66665 -12.6667,-20.33331 -12.3333,-5 -31,-5 h -34.6666 z m 152.1128,127.99987 84.3333,-222.66645 h 57.9999 l 84.3333,222.66645 h -57.3333 l -13.3333,-39.66663 h -85.3333 l -13.3333,39.66663 z m 84.9999,-82.33325 h 56.6667 l -28.6667,-84.66659 z m 151.7801,82.33325 V 412.37627 h 78.9999 l 46.3333,159.66651 46.9999,-159.66651 h 79 v 222.66645 h -51.3333 V 460.04289 l -53,174.99983 h -43.3333 l -52.6666,-174.99983 v 174.99983 z m 364.4466,4 q -36.3333,0 -61.3333,-14.66666 -24.6666,-14.99998 -34.9999,-41.66662 l 47.9999,-17.33332 q 4.6667,15.99999 17.3333,23.66665 13,7.66665 31.3333,7.66665 9.6667,0 18.6667,-1.99999 9,-2.33333 15,-7.33333 6,-5.33333 6,-13.99999 0,-11.66665 -11.3334,-17.99998 -11.3333,-6.66666 -29.3333,-9.99999 l -26.9999,-5.33333 q -18,-3.66666 -33.6667,-10.99999 -15.3333,-7.66665 -24.6666,-19.99998 -9.3333,-12.66665 -9.3333,-31.66663 0,-17.99998 8.3333,-30.99997 8.3333,-12.99999 22,-21.33331 13.9999,-8.33333 30.6666,-12.33333 16.6666,-4.33332 33.3333,-4.33332 18,0 34.6666,4.99999 17,5 30.3333,15.66665 13.3334,10.33333 20.3333,27.66664 l -47.6666,17.33332 q -4.3333,-11.33332 -15.6666,-17.33332 -11,-5.99999 -26.6667,-5.99999 -15.3333,0 -25.6666,5.66666 -10,5.33333 -10,15.66665 0,8.33333 7,14.33332 7,5.99999 18.3333,8.33332 l 30,6 q 13.6666,2.66666 27.6666,6.99999 14,4 25.6667,10.99999 11.9999,6.66666 19.3333,17.99998 7.3333,11.33333 7.3333,28.66664 0,17.66665 -8.3333,31.66664 -8,13.66665 -21.6667,22.99998 -13.3333,9.33332 -29.9999,14.33331 -16.6667,4.66667 -34,4.66667 z"
         id="text1"
         style="font-weight:bold;font-size:333.333px;line-height:1.25;font-family:'Atkinson Hyperlegible';-inkscape-font-specification:'Atkinson Hyperlegible Bold';text-align:center;letter-spacing:-6.22px;word-spacing:0px;text-anchor:middle;white-space:pre;stroke-width:11.2501;paint-order:stroke fill markers"
         transform="matrix(0.04703673,0,0,0.04703673,538.4883,-63.217642)"
         aria-label="RAMS" />
      <rect
         style="font-variation-settings:normal;vector-effect:none;fill:#000000;fill-opacity:1;fill-rule:evenodd;stroke:none;stroke-width:0.264581;stroke-linecap:butt;stroke-linejoin:miter;stroke-miterlimit:4;stroke-dasharray:none;stroke-dashoffset:0;stroke-opacity:1;-inkscape-stroke:none;stop-color:#000000"
         id="rect6"
         width="42.333332"
         height="1.411111"
         x="614.47925"
         y="-31.485489" />
    </g>
  </g>
</svg>
