<?xml version="1.0" encoding="UTF-8" standalone="no"?>
<!-- Created with Inkscape (http://www.inkscape.org/) -->

<svg
   width="512"
   height="512"
   viewBox="0 0 135.46667 135.46666"
   version="1.1"
   id="svg1"
   xmlns="http://www.w3.org/2000/svg"
   xmlns:svg="http://www.w3.org/2000/svg">
  <defs
     id="defs1" />
  <g
     id="layer10"
     style="display:inline"
     transform="translate(-961.12465,144.46249)">
    <rect
       style="font-variation-settings:normal;opacity:1;vector-effect:none;fill:#000000;fill-opacity:1;fill-rule:evenodd;stroke:#000000;stroke-width:0.264583;stroke-linecap:butt;stroke-linejoin:miter;stroke-miterlimit:4;stroke-dasharray:none;stroke-dashoffset:0;stroke-opacity:1;-inkscape-stroke:none;stop-color:#000000;stop-opacity:1"
       id="rect10"
       width="135.46666"
       height="135.46666"
       x="961.12463"
       y="-144.46249" />
  </g>
  <g
     id="layer1"
     transform="translate(-961.12465,144.46249)">
    <path
       style="font-weight:500;font-size:333.333px;line-height:1.25;font-family:'Neue Haas Grotesk Display Pro';-inkscape-font-specification:'Neue Haas Grotesk Display Pro Medium';text-align:center;letter-spacing:0px;word-spacing:0px;text-anchor:middle;white-space:pre;fill:#ffffff;stroke-width:0.529167;paint-order:stroke fill markers"
       d="m 1050.4534,-35.567739 q -7.3761,0 -11.4178,-3.081795 -3.9911,-3.132317 -4.1932,-8.891737 h 7.174 q 0.4042,3.283881 2.324,4.698475 1.9198,1.364073 5.8099,1.364073 1.4146,0 2.6777,-0.252606 1.263,-0.252607 2.2229,-0.80834 0.9599,-0.555734 1.5156,-1.414595 0.6063,-0.909382 0.6063,-2.172413 0,-1.313551 -0.6568,-2.172412 -0.6063,-0.858862 -1.7683,-1.414595 -1.1619,-0.606256 -2.8291,-1.010425 -1.6167,-0.454692 -3.6881,-0.909382 -2.425,-0.555734 -4.6985,-1.21251 -2.2229,-0.707297 -3.9406,-1.869286 -1.6672,-1.161988 -2.7282,-2.980751 -1.0104,-1.818765 -1.0104,-4.647955 0,-2.677625 1.0104,-4.698474 1.061,-2.02085 2.8797,-3.384923 1.8693,-1.364073 4.3954,-2.02085 2.526,-0.707297 5.5573,-0.707297 6.1131,0 9.8011,2.879711 3.7386,2.87971 4.1428,8.386525 h -7.0225 q -0.3031,-2.728148 -2.2229,-4.092221 -1.9198,-1.364073 -4.749,-1.364073 -2.9808,0 -4.749,1.161988 -1.7682,1.161989 -1.7682,3.081795 0,1.111468 0.4547,1.869287 0.5052,0.707297 1.4651,1.26303 1.0104,0.555733 2.4755,0.959904 1.4651,0.404169 3.486,0.858861 2.7787,0.606254 5.2037,1.364073 2.4755,0.707297 4.2943,1.919806 1.8693,1.212511 2.9302,3.081797 1.061,1.869285 1.061,4.799516 0,2.728148 -1.061,4.900561 -1.0609,2.121891 -2.9302,3.587007 -1.8693,1.414594 -4.4459,2.172413 -2.5766,0.757818 -5.6079,0.757818 z"
       id="path12" />
    <path
       style="font-weight:500;font-size:333.333px;line-height:1.25;font-family:'Neue Haas Grotesk Display Pro';-inkscape-font-specification:'Neue Haas Grotesk Display Pro Medium';text-align:center;letter-spacing:0px;word-spacing:0px;text-anchor:middle;white-space:pre;fill:#ffffff;stroke-width:0.529167;paint-order:stroke fill markers"
       d="m 995.33478,-72.498761 h 10.30632 l 5.1027,18.137123 q 0.4547,1.717723 0.8589,3.435444 0.4547,1.717722 0.7578,3.132317 0.3536,1.6672 0.6568,3.182837 h 0.101 q 0.3031,-1.515637 0.6568,-3.182837 0.3031,-1.414595 0.6567,-3.132317 0.4042,-1.717721 0.9094,-3.435444 l 5.1027,-18.137123 h 10.4579 v 36.122683 h -6.8204 v -20.713707 q 0,-1.111466 0,-2.374497 0.051,-1.313553 0.1516,-2.475541 0.05,-1.313553 0.1515,-2.627103 h -0.101 q -0.2526,1.26303 -0.5052,2.475539 -0.2526,1.060947 -0.5558,2.222935 -0.2526,1.161989 -0.5052,2.172414 l -6.2141,21.31996 h -7.0224 l -6.0626,-21.31996 q -0.3031,-1.010425 -0.5557,-2.172414 -0.2526,-1.161988 -0.5053,-2.222935 -0.2525,-1.212509 -0.5052,-2.475539 h -0.101 q 0.05,1.31355 0.1516,2.627103 0.05,1.161988 0.101,2.475541 0.05,1.263031 0.05,2.374497 v 20.713707 h -6.71934 z"
       id="path11" />
    <path
       style="font-weight:500;font-size:333.333px;line-height:1.25;font-family:'Neue Haas Grotesk Display Pro';-inkscape-font-specification:'Neue Haas Grotesk Display Pro Medium';text-align:center;letter-spacing:0px;word-spacing:0px;text-anchor:middle;white-space:pre;fill:#ffffff;stroke-width:0.529167;paint-order:stroke fill markers"
       d="m 1041.4378,-117.89058 h 7.5782 l 12.7313,36.122689 h -7.6287 l -2.425,-7.679224 h -13.0344 l -2.3746,7.679224 h -7.4266 z m -1.0609,22.835605 h 9.5485 l -3.2334,-10.407385 q -0.2526,-0.70729 -0.5052,-1.6672 -0.2021,-0.9599 -0.4547,-1.81876 -0.2526,-1.01042 -0.5052,-2.07137 h -0.101 q -0.3032,1.06095 -0.5558,2.07137 -0.2526,0.85886 -0.5052,1.81876 -0.2021,0.95991 -0.4547,1.6672 z"
       id="path10" />
    <path
       style="font-weight:500;font-size:333.333px;line-height:1.25;font-family:'Neue Haas Grotesk Display Pro';-inkscape-font-specification:'Neue Haas Grotesk Display Pro Medium';text-align:center;letter-spacing:0px;word-spacing:0px;text-anchor:middle;white-space:pre;fill:#ffffff;stroke-width:0.529167;paint-order:stroke fill markers"
       d="m 995.33476,-117.89058 h 16.57104 q 2.6271,0 4.749,0.75782 2.1724,0.7073 3.688,2.02085 1.5156,1.31355 2.324,3.18284 0.8588,1.81876 0.8588,4.09222 0,3.18283 -1.5661,5.50681 -1.5662,2.27346 -5.0521,3.233362 v 0.15156 q 2.4755,0.7073 3.789,2.3745 1.3641,1.616683 1.7178,4.900563 0.2021,1.91981 0.2526,3.58701 0.101,1.61668 0.2021,2.87971 0.1515,1.26303 0.4041,2.07137 0.2526,0.80834 0.7073,1.01042 v 0.353654 h -7.0224 q -0.3537,-0.151564 -0.5558,-0.909384 -0.202,-0.80834 -0.3536,-1.97033 -0.101,-1.16199 -0.2021,-2.57658 -0.101,-1.41459 -0.2021,-2.87971 -0.2526,-2.98075 -1.9703,-4.54691 -1.6672,-1.61668 -5.1027,-1.61668 h -5.9109 v 14.499594 h -7.32564 z m 7.32564,15.96471 h 7.7802 q 3.0313,0 4.4964,-1.36407 1.4651,-1.4146 1.4651,-3.58701 0,-2.22293 -1.4145,-3.63753 -1.4146,-1.46511 -4.3449,-1.46511 h -7.9823 z"
       id="text7" />
  </g>
</svg>
