<?xml version="1.0" encoding="UTF-8" standalone="no"?>
<!-- Created with Inkscape (http://www.inkscape.org/) -->

<svg
   width="512"
   height="512"
   viewBox="0 0 52.916668 52.916664"
   version="1.1"
   id="svg1"
   xmlns="http://www.w3.org/2000/svg"
   xmlns:svg="http://www.w3.org/2000/svg">
  <defs
     id="defs1" />
  <g
     id="layer10"
     style="display:inline"
     transform="translate(-320.71876,63.500001)">
    <rect
       style="font-variation-settings:normal;opacity:1;vector-effect:none;fill:#ffffff;fill-opacity:1;fill-rule:evenodd;stroke:none;stroke-width:0.264583;stroke-linecap:butt;stroke-linejoin:miter;stroke-miterlimit:4;stroke-dasharray:none;stroke-dashoffset:0;stroke-opacity:1;-inkscape-stroke:none;stop-color:#000000;stop-opacity:1"
       id="rect59"
       width="52.916664"
       height="52.916664"
       x="320.71872"
       y="-63.5" />
  </g>
  <g
     id="layer1"
     transform="translate(-320.71876,63.500001)">
    <g
       id="g13"
       transform="translate(-3.4317947,0.99108399)"
       style="display:inline">
      <rect
         style="font-variation-settings:normal;vector-effect:none;fill:#000000;fill-opacity:1;fill-rule:evenodd;stroke:none;stroke-width:0.264583;stroke-linecap:butt;stroke-linejoin:miter;stroke-miterlimit:4;stroke-dasharray:none;stroke-dashoffset:0;stroke-opacity:1;-inkscape-stroke:none;stop-color:#000000"
         id="rect5"
         width="26.458334"
         height="3.9687462"
         x="337.37976"
         y="-22.489574" />
      <path
         d="m -198.93992,54.304001 c -0.096,-2.16 -0.528,-3.84 -1.2,-5.04 -0.672,-1.152 -1.92,-2.064 -3.648,-2.64 3.648,-1.44 5.52,-4.176 5.52,-8.112 0,-3.024 -1.104,-5.424 -3.216,-7.2 -2.112,-1.776 -5.184,-2.688 -9.168,-2.688 h -16.176 v 34.176 h 8.112 v -12.576 h 6.624 c 1.728,0 2.976,0.384 3.744,1.104 0.768,0.72 1.2,2.016 1.296,3.888 l 0.144,3.84 c 0,1.536 0.288,2.784 0.816,3.744 h 8.352 c -0.624,-0.912 -0.96,-2.16 -0.96,-3.696 z m -19.776,-19.2 h 7.008 c 3.36,0 5.088,1.488 5.088,4.464 0,1.488 -0.432,2.64 -1.296,3.408 -0.864,0.768 -2.112,1.152 -3.648,1.152 h -7.152 z"
         id="text12"
         style="font-weight:800;font-size:48px;line-height:1.45;font-family:'Helvetica Now Display';-inkscape-font-specification:'Helvetica Now Display Ultra-Bold';letter-spacing:0px;word-spacing:0px;white-space:pre;stroke-width:0.439756"
         transform="matrix(0.90959616,0,0,0.90959616,543.70147,-83.580957)"
         aria-label="R" />
    </g>
  </g>
</svg>
