<svg width="512" height="512" viewBox="0 0 135.467 135.467" version="1.1" id="svg1" xmlns="http://www.w3.org/2000/svg"><g id="layer10" style="display:inline" transform="translate(-1309.791 149.701)"><path style="font-variation-settings:normal;opacity:1;vector-effect:none;fill:#000;fill-opacity:1;fill-rule:evenodd;stroke:none;stroke-width:.264583px;stroke-linecap:butt;stroke-linejoin:miter;stroke-miterlimit:4;stroke-dasharray:none;stroke-dashoffset:0;stroke-opacity:1;-inkscape-stroke:none;stop-color:#000;stop-opacity:1" id="rect6" d="M1309.791-149.701h135.467v135.467h-135.467z"/></g><g id="layer1" transform="translate(-1309.791 149.701)"><path style="-inkscape-font-specification:&quot;Atkinson Hyperlegible Bold&quot;;text-align:center;letter-spacing:0;word-spacing:0;white-space:pre;fill:#fff;stroke-width:.529166px;paint-order:stroke fill markers;font-family:Atkinson Hyperlegible;font-size:333.333px;font-weight:700;line-height:1.25" d="M1403.972-38.202c7.914 0 16.173-4.53 16.173-12.675 0-7.914-7.57-9.864-13.765-11.126l-5.161-1.032c-2.638-.517-4.36-1.95-4.36-3.9 0-2.352 2.64-3.67 6.138-3.67 3.613 0 6.25 1.433 7.283 4.014l8.202-2.982c-2.41-5.908-8.488-8.316-14.682-8.316-7.686 0-16.231 3.67-16.231 11.871 0 6.538 5.391 9.52 11.642 10.783l4.646.917c4.13.803 6.997 2.122 6.997 4.818 0 2.982-3.556 4.014-6.825 4.014-4.244 0-7.341-1.72-8.373-5.39l-8.26 2.982c2.352 6.136 8.202 9.692 16.576 9.692z" id="path4"/><path style="-inkscape-font-specification:&quot;Atkinson Hyperlegible Bold&quot;;text-align:center;letter-spacing:0;word-spacing:0;white-space:pre;fill:#fff;stroke-width:.529166px;paint-order:stroke fill markers;font-family:Atkinson Hyperlegible;font-size:333.333px;font-weight:700;line-height:1.25" d="M1340.725-38.89h8.775V-69l9.062 30.11h7.456l9.118-30.11v30.11h8.833v-38.311h-13.593l-8.086 27.471-7.972-27.471h-13.593z" id="path3"/><g id="g9" transform="translate(7.992 -5.455)"><path style="-inkscape-font-specification:&quot;Atkinson Hyperlegible Bold&quot;;text-align:center;letter-spacing:0;word-spacing:0;white-space:pre;fill:#fff;stroke-width:.529166px;paint-order:stroke fill markers;font-family:Atkinson Hyperlegible;font-size:333.333px;font-weight:700;line-height:1.25" d="M1369.037-81.968h9.865l2.294-6.825h14.682l2.294 6.825h9.864l-14.51-38.31h-9.979zm14.625-14.166 4.817-14.567 4.933 14.567z" id="path2"/><path style="-inkscape-font-specification:&quot;Atkinson Hyperlegible Bold&quot;;text-align:center;letter-spacing:0;word-spacing:0;white-space:pre;fill:#fff;stroke-width:.529166px;paint-order:stroke fill markers;font-family:Atkinson Hyperlegible;font-size:333.333px;font-weight:700;line-height:1.25" d="M1332.734-81.968h9.061V-96.42h4.072l10.38 14.452h10.496l-11.126-15.427c7.284-1.95 9.234-6.653 9.234-11.012 0-9.52-7.456-11.872-17.378-11.872h-14.74zm9.061-22.023v-8.66h5.965c4.244 0 7.513.803 7.513 4.359s-3.27 4.301-7.513 4.301z" id="text13"/></g></g></svg>