<?xml version="1.0" encoding="UTF-8" standalone="no"?>
<!-- Created with Inkscape (http://www.inkscape.org/) -->

<svg
   width="200"
   height="200"
   viewBox="0 0 52.916668 52.916664"
   version="1.1"
   id="svg1"
   xmlns="http://www.w3.org/2000/svg"
   xmlns:svg="http://www.w3.org/2000/svg">
  <defs
     id="defs1" />
  <g
     id="layer7"
     transform="translate(-198.16668)">
    <path
       style="font-variation-settings:normal;opacity:1;vector-effect:none;fill:#ffffff;fill-opacity:1;fill-rule:evenodd;stroke:none;stroke-width:0.264583;stroke-linecap:butt;stroke-linejoin:miter;stroke-miterlimit:4;stroke-dasharray:none;stroke-dashoffset:0;stroke-opacity:1;-inkscape-stroke:none;stop-color:#000000;stop-opacity:1"
       id="rect59"
       width="52.916664"
       height="52.916664"
       x="198.16669"
       y="0"
       d="m 203.45835,0 h 42.33333 a 5.2916667,5.2916667 45 0 1 5.29167,5.2916667 l 0,42.3333303 a 5.2916667,5.2916667 135 0 1 -5.29167,5.291667 h -42.33333 a 5.2916667,5.2916667 45 0 1 -5.29166,-5.291667 V 5.2916667 A 5.2916667,5.2916667 135 0 1 203.45835,0 Z" />
    <g
       id="g1"
       transform="translate(3.1815133e-5,-1.6279642)">
      <path
         style="font-weight:bold;font-size:26.6667px;line-height:1.45;font-family:'Helvetica Neue';-inkscape-font-specification:'Helvetica Neue Bold';letter-spacing:0px;word-spacing:0px;white-space:pre;stroke-width:0.399998"
         d="m 238.88556,28.067146 c 0,0.369073 0.0615,0.692011 0.19991,0.938061 0.12302,0.261426 0.30757,0.476719 0.52286,0.6305 0.21529,0.15378 0.47672,0.276804 0.78428,0.353694 0.29219,0.07689 0.59974,0.107648 0.92268,0.107648 0.2153,0 0.44597,-0.01538 0.69201,-0.04614 0.24606,-0.03075 0.47672,-0.107647 0.69202,-0.215293 0.21529,-0.09227 0.38444,-0.230671 0.53823,-0.415207 0.1384,-0.184537 0.21529,-0.415207 0.21529,-0.692012 0,-0.292183 -0.10764,-0.538232 -0.29218,-0.722769 -0.18453,-0.184536 -0.43059,-0.338317 -0.73814,-0.461342 -0.30757,-0.123023 -0.66126,-0.23067 -1.04571,-0.322939 -0.39984,-0.09227 -0.78428,-0.184536 -1.18412,-0.30756 -0.41521,-0.09227 -0.81503,-0.215293 -1.19948,-0.369074 -0.39983,-0.15378 -0.73815,-0.338317 -1.0457,-0.584366 -0.30757,-0.230671 -0.56899,-0.522854 -0.75354,-0.876549 -0.18453,-0.353695 -0.2768,-0.78428 -0.2768,-1.291757 0,-0.553609 0.10764,-1.045706 0.35369,-1.460913 0.24605,-0.415208 0.55362,-0.768904 0.95345,-1.045708 0.38444,-0.276806 0.83041,-0.47672 1.32251,-0.615123 0.4921,-0.123024 0.9842,-0.199914 1.47629,-0.199914 0.56898,0 1.12259,0.07689 1.64545,0.199914 0.52286,0.123025 0.99958,0.338317 1.41478,0.615123 0.39983,0.292182 0.72277,0.661256 0.96881,1.107219 0.24606,0.445964 0.36908,0.984195 0.36908,1.614696 h -2.33747 c -0.0308,-0.32294 -0.0923,-0.584366 -0.21528,-0.815037 -0.12302,-0.215293 -0.27681,-0.384452 -0.46134,-0.507476 -0.19992,-0.107646 -0.43059,-0.199915 -0.67664,-0.261426 -0.24605,-0.04614 -0.52285,-0.06151 -0.81504,-0.07689 -0.19991,0 -0.39983,0.03075 -0.58437,0.06151 -0.19991,0.04613 -0.38444,0.123024 -0.53822,0.215292 -0.15378,0.107647 -0.29219,0.23067 -0.38446,0.384452 -0.10764,0.15378 -0.15378,0.353695 -0.15378,0.584365 0,0.215293 0.0308,0.39983 0.12303,0.522854 0.0769,0.138402 0.23067,0.261427 0.47672,0.369074 0.24604,0.123023 0.56898,0.23067 0.99958,0.338316 0.43058,0.123025 0.98419,0.261427 1.6762,0.430586 0.19991,0.04614 0.47672,0.123024 0.84579,0.23067 0.36908,0.107646 0.72277,0.276806 1.09185,0.507476 0.35369,0.246049 0.66125,0.55361 0.92268,0.95344 0.26143,0.399829 0.39982,0.891926 0.39982,1.507048 0,0.507477 -0.10764,0.968818 -0.29218,1.399403 -0.19991,0.430586 -0.49209,0.815037 -0.87655,1.122598 -0.38444,0.307561 -0.86117,0.55361 -1.43015,0.722768 -0.56899,0.184537 -1.23025,0.261427 -1.9684,0.261427 -0.61512,0 -1.19948,-0.06151 -1.76847,-0.215292 -0.56899,-0.153781 -1.07647,-0.384451 -1.50704,-0.707391 -0.4306,-0.307561 -0.78429,-0.722768 -1.03034,-1.214866 -0.26142,-0.492098 -0.38445,-1.076463 -0.36907,-1.753097 z"
         id="path59" />
      <path
         style="font-weight:bold;font-size:26.6667px;line-height:1.45;font-family:'Helvetica Neue';-inkscape-font-specification:'Helvetica Neue Bold';letter-spacing:0px;word-spacing:0px;white-space:pre;stroke-width:0.399998"
         d="m 224.34947,20.770258 h 3.39855 l 2.56813,7.550623 h 0.0308 l 2.42972,-7.550623 h 3.39855 v 10.979929 h -2.26057 v -7.781294 h -0.0308 l -2.69116,7.781294 h -1.86074 l -2.69117,-7.704404 h -0.0308 v 7.704404 h -2.26058 z"
         id="path58" />
      <path
         style="font-weight:bold;font-size:26.6667px;line-height:1.45;font-family:'Helvetica Neue';-inkscape-font-specification:'Helvetica Neue Bold';letter-spacing:0px;word-spacing:0px;white-space:pre;stroke-width:0.399998"
         d="m 217.16881,27.505663 h 2.84494 l -1.38402,-4.02905 h -0.0308 z m 0.23067,-6.735587 h 2.47587 l 4.10594,10.979929 h -2.50662 l -0.83041,-2.44511 h -4.10595 l -0.86117,2.44511 h -2.42973 z"
         id="path57" />
      <path
         style="font-weight:bold;font-size:26.6667px;line-height:1.45;font-family:'Helvetica Neue';-inkscape-font-specification:'Helvetica Neue Bold';letter-spacing:0px;word-spacing:0px;white-space:pre;stroke-width:0.399999"
         d="m 205.87273,25.737184 h 2.64502 c 0.55361,0 0.96882,-0.123025 1.24563,-0.369074 0.2768,-0.246048 0.4152,-0.645878 0.4152,-1.199487 0,-0.522854 -0.1384,-0.907306 -0.4152,-1.153354 -0.27681,-0.246049 -0.69202,-0.369074 -1.24563,-0.369074 h -2.64502 z m -2.41436,-4.967111 h 5.92055 c 0.4921,0 0.92269,0.09227 1.32252,0.246049 0.39982,0.15378 0.73814,0.369073 1.01495,0.645878 0.2768,0.276805 0.4921,0.599744 0.64587,0.968818 0.15379,0.369072 0.23068,0.753524 0.23068,1.168731 0,0.645878 -0.13841,1.214866 -0.41521,1.676208 -0.27681,0.47672 -0.70739,0.830415 -1.32251,1.076463 v 0.03076 c 0.29218,0.09227 0.53823,0.215292 0.73814,0.384451 0.18454,0.169158 0.3537,0.369073 0.47673,0.599743 0.12302,0.230671 0.19991,0.47672 0.26142,0.753525 0.0615,0.276805 0.0923,0.55361 0.12302,0.830415 0,0.184537 0.0154,0.384451 0.0307,0.615122 0,0.246049 0.0154,0.476719 0.0461,0.722768 0.0307,0.246049 0.0615,0.492098 0.12303,0.707391 0.0615,0.215292 0.1384,0.399829 0.26143,0.55361 h -2.41436 c -0.1384,-0.338318 -0.21529,-0.753525 -0.24605,-1.245623 -0.0307,-0.476719 -0.0769,-0.938061 -0.1384,-1.384024 -0.0923,-0.568988 -0.26143,-0.984196 -0.52285,-1.261 -0.27681,-0.261427 -0.7074,-0.399829 -1.30714,-0.399829 h -2.41435 V 31.75 h -2.41436 z"
         id="text56" />
      <rect
         style="font-variation-settings:normal;vector-effect:none;fill:#000000;fill-opacity:1;fill-rule:evenodd;stroke:none;stroke-width:0.264583;stroke-linecap:butt;stroke-linejoin:miter;stroke-miterlimit:4;stroke-dasharray:none;stroke-dashoffset:0;stroke-opacity:1;-inkscape-stroke:none;stop-color:#000000"
         id="rect57"
         width="42.333344"
         height="1.3063802"
         x="203.45834"
         y="34.395832" />
    </g>
  </g>
</svg>
