<svg width="512" height="512" viewBox="0 0 135.467 135.467" version="1.1" id="svg1" xmlns="http://www.w3.org/2000/svg"><g id="layer10" style="display:inline" transform="translate(-961.125 144.462)"><path style="font-variation-settings:normal;opacity:1;vector-effect:none;fill:#000;fill-opacity:1;fill-rule:evenodd;stroke:#000;stroke-width:.264583px;stroke-linecap:butt;stroke-linejoin:miter;stroke-miterlimit:4;stroke-dasharray:none;stroke-dashoffset:0;stroke-opacity:1;-inkscape-stroke:none;stop-color:#000;stop-opacity:1" id="rect10" d="M961.125-144.462h135.467V-8.995H961.125z"/></g><g id="layer1" transform="translate(-961.125 144.462)"><g id="g2"><path style="-inkscape-font-specification:&quot;Neue Haas Grotesk Display Pro Medium&quot;;text-align:center;letter-spacing:0;word-spacing:0;text-anchor:middle;white-space:pre;fill:#fff;stroke-width:.529167px;paint-order:stroke fill markers;font-family:Neue Haas Grotesk Display Pro;font-size:333.333px;font-weight:500;line-height:1.25" d="M1050.453-35.568q-7.376 0-11.417-3.082-3.991-3.132-4.194-8.891h7.174q.405 3.284 2.324 4.698 1.92 1.364 5.81 1.364 1.415 0 2.678-.252 1.263-.253 2.223-.809.96-.555 1.516-1.414.606-.91.606-2.173 0-1.313-.657-2.172-.606-.859-1.768-1.415-1.162-.606-2.83-1.01-1.616-.455-3.687-.91-2.425-.555-4.699-1.212-2.223-.707-3.94-1.87-1.668-1.161-2.729-2.98-1.01-1.819-1.01-4.648 0-2.678 1.01-4.698 1.061-2.021 2.88-3.385 1.87-1.364 4.395-2.021 2.526-.708 5.558-.708 6.113 0 9.8 2.88 3.74 2.88 4.144 8.387h-7.023q-.303-2.728-2.223-4.093-1.92-1.364-4.749-1.364-2.98 0-4.749 1.162-1.768 1.162-1.768 3.082 0 1.112.455 1.87.505.707 1.465 1.263 1.01.555 2.475.96 1.465.404 3.486.858 2.779.607 5.204 1.364 2.475.708 4.294 1.92 1.87 1.213 2.93 3.082 1.061 1.87 1.061 4.8 0 2.728-1.06 4.9-1.061 2.122-2.93 3.587-1.87 1.415-4.447 2.172-2.576.758-5.608.758z" id="path12"/><path style="-inkscape-font-specification:&quot;Neue Haas Grotesk Display Pro Medium&quot;;text-align:center;letter-spacing:0;word-spacing:0;text-anchor:middle;white-space:pre;fill:#fff;stroke-width:.529167px;paint-order:stroke fill markers;font-family:Neue Haas Grotesk Display Pro;font-size:333.333px;font-weight:500;line-height:1.25" d="M995.335-72.499h10.306l5.103 18.137q.455 1.718.859 3.436.454 1.718.758 3.132.353 1.667.656 3.183h.101q.303-1.516.657-3.183.303-1.414.657-3.132.404-1.718.91-3.436l5.102-18.137h10.458v36.123h-6.82V-59.464q.05-1.314.151-2.476.05-1.313.151-2.627h-.1q-.253 1.263-.506 2.476-.252 1.06-.556 2.223-.252 1.162-.505 2.172l-6.214 21.32h-7.022l-6.063-21.32q-.303-1.01-.556-2.172-.252-1.162-.505-2.223-.252-1.213-.505-2.476h-.101q.05 1.314.152 2.627.05 1.162.1 2.476.05 1.263.05 2.374v20.714h-6.719z" id="path11"/><path style="-inkscape-font-specification:&quot;Neue Haas Grotesk Display Pro Medium&quot;;text-align:center;letter-spacing:0;word-spacing:0;text-anchor:middle;white-space:pre;fill:#fff;stroke-width:.529167px;paint-order:stroke fill markers;font-family:Neue Haas Grotesk Display Pro;font-size:333.333px;font-weight:500;line-height:1.25" d="M1041.438-117.89h7.578l12.731 36.122h-7.628l-2.425-7.68h-13.035l-2.374 7.68h-7.427zm-1.061 22.835h9.548l-3.233-10.407q-.253-.708-.505-1.668-.202-.96-.455-1.818-.253-1.01-.505-2.072h-.101q-.303 1.061-.556 2.072-.253.859-.505 1.818-.202.96-.455 1.668z" id="path10"/><path style="-inkscape-font-specification:&quot;Neue Haas Grotesk Display Pro Medium&quot;;text-align:center;letter-spacing:0;word-spacing:0;text-anchor:middle;white-space:pre;fill:#fff;stroke-width:.529167px;paint-order:stroke fill markers;font-family:Neue Haas Grotesk Display Pro;font-size:333.333px;font-weight:500;line-height:1.25" d="M995.335-117.89h16.57q2.628 0 4.75.757 2.172.708 3.688 2.021 1.515 1.314 2.324 3.183.859 1.819.859 4.092 0 3.183-1.567 5.507-1.566 2.273-5.052 3.233v.152q2.476.707 3.79 2.374 1.363 1.617 1.717 4.9.202 1.92.253 3.588.1 1.617.202 2.88.151 1.263.404 2.071.253.808.707 1.01v.354h-7.022q-.354-.151-.556-.91-.202-.808-.354-1.97-.1-1.162-.202-2.576l-.202-2.88q-.252-2.98-1.97-4.547-1.667-1.616-5.103-1.616h-5.91v14.5h-7.326zm7.325 15.964h7.78q3.032 0 4.497-1.364 1.465-1.415 1.465-3.587 0-2.223-1.414-3.637-1.415-1.466-4.345-1.466h-7.983z" id="text7"/></g></g></svg>