<?xml version="1.0" encoding="UTF-8" standalone="no"?>
<!-- Created with Inkscape (http://www.inkscape.org/) -->

<svg
   width="512"
   height="512"
   viewBox="0 0 52.916669 52.916662"
   version="1.1"
   id="svg1"
   xmlns="http://www.w3.org/2000/svg"
   xmlns:svg="http://www.w3.org/2000/svg">
  <defs
     id="defs1" />
  <g
     id="layer10"
     style="display:inline"
     transform="translate(-673.15318,63.500003)">
    <rect
       style="font-variation-settings:normal;opacity:1;vector-effect:none;fill:#000000;fill-opacity:1;fill-rule:evenodd;stroke:#000000;stroke-width:0.264583;stroke-linecap:butt;stroke-linejoin:miter;stroke-miterlimit:4;stroke-dasharray:none;stroke-dashoffset:0;stroke-opacity:1;-inkscape-stroke:none;stop-color:#000000;stop-opacity:1"
       id="rect19"
       width="52.916664"
       height="52.916664"
       x="673.1532"
       y="-63.5"
       ry="0.27587399"
       rx="0.27587399" />
  </g>
  <g
     id="layer1"
     transform="translate(-673.15318,63.500003)">
    <g
       id="g3"
       transform="matrix(1.0634303,0,0,1.0634303,-45.032076,2.771479)"
       style="stroke-width:0.940353">
      <path
         style="font-weight:900;font-size:333.333px;line-height:1.25;font-family:'Hanken Grotesk';-inkscape-font-specification:'Hanken Grotesk Heavy';text-align:center;letter-spacing:0px;word-spacing:0px;text-anchor:middle;white-space:pre;fill:#ffffff;stroke-width:0.497602;paint-order:stroke fill markers"
         d="m 710.73299,-19.508802 q -2.57086,0 -4.21089,-1.329752 -1.64003,-1.329745 -1.99462,-3.545996 l 3.39086,-0.842178 q 0.24379,1.32975 0.99731,1.994628 0.77569,0.642708 1.92814,0.642708 0.57623,0 1.01948,-0.177295 0.46541,-0.177302 0.73137,-0.531903 0.26594,-0.354597 0.26594,-0.842175 0,-0.443247 -0.26594,-0.775686 -0.26596,-0.354605 -0.86434,-0.664875 -0.59839,-0.332439 -1.5957,-0.709206 -1.57354,-0.620546 -2.57085,-1.307582 -0.99731,-0.709204 -1.46273,-1.617865 -0.46541,-0.908665 -0.46541,-2.083272 0,-1.285433 0.62055,-2.260581 0.6427,-0.997314 1.773,-1.551374 1.15245,-0.576227 2.65949,-0.576227 1.61787,0 2.85897,0.753529 1.26326,0.731356 2.01679,2.238412 l -2.77032,1.684348 q -0.42108,-0.77569 -0.99731,-1.174614 -0.55406,-0.421087 -1.21893,-0.421087 -0.39893,0 -0.73137,0.155136 -0.33244,0.155143 -0.5319,0.443252 -0.19946,0.265952 -0.19946,0.642716 0,0.376759 0.22163,0.709198 0.24379,0.332437 0.86434,0.687037 0.62055,0.332436 1.72866,0.753527 1.4849,0.554064 2.43789,1.218939 0.97514,0.664875 1.46272,1.551374 0.48758,0.86434 0.48758,2.083276 0,1.418401 -0.7092,2.52653 -0.68704,1.085961 -1.9503,1.706508 -1.24111,0.62055 -2.92545,0.62055 z"
         id="path20" />
      <path
         style="font-weight:900;font-size:333.333px;line-height:1.25;font-family:'Hanken Grotesk';-inkscape-font-specification:'Hanken Grotesk Heavy';text-align:center;letter-spacing:0px;word-spacing:0px;text-anchor:middle;white-space:pre;fill:#ffffff;stroke-width:0.497602;paint-order:stroke fill markers"
         d="M 686.46173,-19.812433 V -35.2597 h 5.07521 l 3.54601,10.549353 h -0.62057 L 698.0084,-35.2597 h 5.07521 v 15.447267 h -3.47952 v -11.369366 l 0.33245,0.06649 -3.47952,9.906637 h -3.36871 l -3.47951,-9.906637 0.33244,-0.06649 v 11.369366 z"
         id="path19" />
      <path
         style="font-weight:900;font-size:333.333px;line-height:1.25;font-family:'Hanken Grotesk';-inkscape-font-specification:'Hanken Grotesk Heavy';text-align:center;letter-spacing:0px;word-spacing:0px;text-anchor:middle;white-space:pre;fill:#ffffff;stroke-width:0.497602;paint-order:stroke fill markers"
         d="m 700.22792,-39.920765 6.42713,-15.447267 h 2.54869 l 6.40496,15.447267 h -3.78978 l -3.87845,-10.261243 -3.92276,10.261243 z m 4.6098,-2.615174 1.08598,-3.102752 h 4.01141 l 1.13028,3.102752 z"
         id="path17" />
      <path
         style="font-weight:900;font-size:333.333px;line-height:1.25;font-family:'Hanken Grotesk';-inkscape-font-specification:'Hanken Grotesk Heavy';text-align:center;letter-spacing:0px;word-spacing:0px;text-anchor:middle;white-space:pre;fill:#ffffff;stroke-width:0.497602;paint-order:stroke fill markers"
         d="m 686.46173,-39.920765 v -15.447267 h 5.4298 q 1.95031,0 3.12492,0.576226 1.17462,0.554061 1.70652,1.595703 0.5319,1.019475 0.5319,2.393546 0,2.260579 -1.28542,3.457356 -1.28544,1.174609 -3.6125,1.285426 -0.62055,0 -1.19677,0 -0.57623,0 -0.90866,0 h -0.31028 v 6.13901 z m 8.22228,0 -3.78979,-6.515778 3.56817,-0.421084 4.2552,6.936862 z m -4.74277,-9.241762 h 1.5957 q 0.55406,0 1.0638,-0.08865 0.50974,-0.110805 0.84217,-0.443248 0.33244,-0.354603 0.33244,-1.063801 0,-0.709203 -0.33244,-1.019473 -0.33243,-0.332439 -0.84217,-0.398926 -0.50974,-0.08865 -1.0638,-0.08865 h -1.5957 z"
         id="text15" />
    </g>
  </g>
</svg>
