<?xml version="1.0" encoding="UTF-8" standalone="no"?>
<!-- Created with Inkscape (http://www.inkscape.org/) -->

<svg
   width="200"
   height="200"
   viewBox="0 0 52.916669 52.916662"
   version="1.1"
   id="svg1"
   xmlns="http://www.w3.org/2000/svg"
   xmlns:svg="http://www.w3.org/2000/svg">
  <defs
     id="defs1" />
  <g
     id="layer9"
     transform="translate(-198.16669,-63.500001)">
    <rect
       style="font-variation-settings:normal;opacity:1;vector-effect:none;fill:#ffffff;fill-opacity:1;fill-rule:evenodd;stroke:none;stroke-width:0.264583;stroke-linecap:butt;stroke-linejoin:miter;stroke-miterlimit:4;stroke-dasharray:none;stroke-dashoffset:0;stroke-opacity:1;-inkscape-stroke:none;stop-color:#000000;stop-opacity:1"
       id="rect59"
       width="52.916664"
       height="52.916664"
       x="198.16669"
       y="0"
       transform="translate(-3.7524943e-6,63.500001)" />
    <path
       d="m 218.18289,83.639185 h 7.43538 c 1.55624,0 2.72342,-0.345825 3.50154,-1.037493 0.77812,-0.691652 1.16718,-1.815615 1.16718,-3.371856 0,-1.469789 -0.38906,-2.550516 -1.16718,-3.24217 -0.77812,-0.691667 -1.9453,-1.037493 -3.50154,-1.037493 h -7.43538 z m -6.78696,-13.962951 h 16.64315 c 1.38334,0 2.59375,0.259373 3.7177,0.691668 1.12395,0.432279 2.07499,1.037494 2.85312,1.815615 0.77811,0.778121 1.38332,1.685928 1.81561,2.723422 0.43229,1.037494 0.64842,2.118222 0.64842,3.285403 0,1.815615 -0.38906,3.415089 -1.16717,4.711958 -0.77812,1.340102 -1.98852,2.334362 -3.71769,3.026029 v 0.08641 c 0.82136,0.259373 1.51301,0.605215 2.075,1.080728 0.51874,0.475513 0.99425,1.037493 1.34009,1.685928 0.34584,0.648434 0.56197,1.340102 0.7349,2.118222 0.17292,0.77812 0.25937,1.556241 0.34581,2.334363 0,0.51875 0.0433,1.080727 0.0864,1.729163 0,0.691659 0.0433,1.340091 0.12968,2.031749 0.0864,0.691669 0.17291,1.383335 0.34583,1.988542 0.17291,0.605215 0.38906,1.123956 0.7349,1.556236 h -6.78696 c -0.38906,-0.951021 -0.6052,-2.118226 -0.69165,-3.501552 -0.0864,-1.340099 -0.21616,-2.636961 -0.38906,-3.890591 -0.25938,-1.599476 -0.73491,-2.766657 -1.46979,-3.544777 -0.77812,-0.734903 -1.98853,-1.123963 -3.67447,-1.123963 h -6.78694 v 12.060883 h -6.78696 z"
       id="text3"
       style="font-weight:bold;font-size:26.6667px;line-height:1.45;font-family:'Helvetica Neue';-inkscape-font-specification:'Helvetica Neue Bold';letter-spacing:0px;word-spacing:0px;white-space:pre;stroke-width:0.4"
       aria-label="R" />
    <rect
       style="font-variation-settings:normal;vector-effect:none;fill:#000000;fill-opacity:1;fill-rule:evenodd;stroke:none;stroke-width:0.264583;stroke-linecap:butt;stroke-linejoin:miter;stroke-miterlimit:4;stroke-dasharray:none;stroke-dashoffset:0;stroke-opacity:1;-inkscape-stroke:none;stop-color:#000000"
       id="rect5"
       width="26.591759"
       height="3.9687462"
       x="211.39584"
       y="104.51041" />
  </g>
</svg>
